<mxfile host="Electron" agent="Mozilla/5.0 (Macintosh; Intel Mac OS X 10_15_7) AppleWebKit/537.36 (KHTML, like Gecko) draw.io/25.0.2 Chrome/128.0.6613.186 Electron/32.2.5 Safari/537.36" version="25.0.2">
  <diagram name="Page-1" id="hvbC8rDduUFTOOiKOdUn">
    <mxGraphModel dx="435" dy="1012" grid="1" gridSize="10" guides="1" tooltips="1" connect="1" arrows="1" fold="1" page="1" pageScale="1" pageWidth="850" pageHeight="1100" math="0" shadow="0">
      <root>
        <mxCell id="0" />
        <mxCell id="1" parent="0" />
        <mxCell id="iQbWCEgDwZBO2M4Au1AI-1" value="" style="rounded=1;whiteSpace=wrap;html=1;" parent="1" vertex="1">
          <mxGeometry x="1420" y="260" width="870" height="560" as="geometry" />
        </mxCell>
        <mxCell id="iQbWCEgDwZBO2M4Au1AI-2" value="Datapath" style="whiteSpace=wrap;html=1;aspect=fixed;" parent="1" vertex="1">
          <mxGeometry x="1470" y="430.75" width="330" height="330" as="geometry" />
        </mxCell>
        <mxCell id="iQbWCEgDwZBO2M4Au1AI-3" value="Controller" style="rounded=0;whiteSpace=wrap;html=1;" parent="1" vertex="1">
          <mxGeometry x="1870" y="430.75" width="370" height="329.25" as="geometry" />
        </mxCell>
        <mxCell id="iQbWCEgDwZBO2M4Au1AI-4" value="" style="endArrow=classic;startArrow=classic;html=1;rounded=0;entryX=0.001;entryY=0.027;entryDx=0;entryDy=0;entryPerimeter=0;exitX=1;exitY=0.032;exitDx=0;exitDy=0;exitPerimeter=0;" parent="1" source="iQbWCEgDwZBO2M4Au1AI-2" target="iQbWCEgDwZBO2M4Au1AI-3" edge="1">
          <mxGeometry width="50" height="50" relative="1" as="geometry">
            <mxPoint x="1640" y="470" as="sourcePoint" />
            <mxPoint x="1690" y="420" as="targetPoint" />
          </mxGeometry>
        </mxCell>
        <mxCell id="iQbWCEgDwZBO2M4Au1AI-5" value="" style="endArrow=classic;startArrow=classic;html=1;rounded=0;entryX=0.001;entryY=0.027;entryDx=0;entryDy=0;entryPerimeter=0;exitX=1;exitY=0.032;exitDx=0;exitDy=0;exitPerimeter=0;" parent="1" edge="1">
          <mxGeometry width="50" height="50" relative="1" as="geometry">
            <mxPoint x="1800" y="448" as="sourcePoint" />
            <mxPoint x="1870" y="447" as="targetPoint" />
          </mxGeometry>
        </mxCell>
        <mxCell id="iQbWCEgDwZBO2M4Au1AI-6" value="" style="endArrow=none;html=1;rounded=0;" parent="1" edge="1">
          <mxGeometry width="50" height="50" relative="1" as="geometry">
            <mxPoint x="1820" y="441" as="sourcePoint" />
            <mxPoint x="1820" y="408" as="targetPoint" />
          </mxGeometry>
        </mxCell>
        <mxCell id="iQbWCEgDwZBO2M4Au1AI-7" value="" style="endArrow=none;html=1;rounded=0;" parent="1" edge="1">
          <mxGeometry width="50" height="50" relative="1" as="geometry">
            <mxPoint x="1840" y="447" as="sourcePoint" />
            <mxPoint x="1840" y="407" as="targetPoint" />
          </mxGeometry>
        </mxCell>
        <mxCell id="iQbWCEgDwZBO2M4Au1AI-8" value="clk" style="text;html=1;align=center;verticalAlign=middle;resizable=0;points=[];autosize=1;strokeColor=none;fillColor=none;" parent="1" vertex="1">
          <mxGeometry x="1800" y="388" width="40" height="30" as="geometry" />
        </mxCell>
        <mxCell id="iQbWCEgDwZBO2M4Au1AI-9" value="reset" style="text;html=1;align=center;verticalAlign=middle;resizable=0;points=[];autosize=1;strokeColor=none;fillColor=none;" parent="1" vertex="1">
          <mxGeometry x="1820" y="385.75" width="50" height="30" as="geometry" />
        </mxCell>
        <mxCell id="iQbWCEgDwZBO2M4Au1AI-10" value="" style="endArrow=classic;html=1;rounded=0;exitX=0.999;exitY=0.308;exitDx=0;exitDy=0;exitPerimeter=0;entryX=0.002;entryY=0.312;entryDx=0;entryDy=0;entryPerimeter=0;" parent="1" edge="1">
          <mxGeometry width="50" height="50" relative="1" as="geometry">
            <mxPoint x="1799.7799999999997" y="479.5100000000001" as="sourcePoint" />
            <mxPoint x="1870.46" y="480.15599999999995" as="targetPoint" />
          </mxGeometry>
        </mxCell>
        <mxCell id="iQbWCEgDwZBO2M4Au1AI-11" value="" style="endArrow=classic;html=1;rounded=0;exitX=0.999;exitY=0.308;exitDx=0;exitDy=0;exitPerimeter=0;entryX=0.002;entryY=0.312;entryDx=0;entryDy=0;entryPerimeter=0;" parent="1" edge="1">
          <mxGeometry width="50" height="50" relative="1" as="geometry">
            <mxPoint x="1800" y="495" as="sourcePoint" />
            <mxPoint x="1870" y="495" as="targetPoint" />
          </mxGeometry>
        </mxCell>
        <mxCell id="iQbWCEgDwZBO2M4Au1AI-12" value="" style="endArrow=classic;html=1;rounded=0;exitX=0.999;exitY=0.308;exitDx=0;exitDy=0;exitPerimeter=0;entryX=0.002;entryY=0.312;entryDx=0;entryDy=0;entryPerimeter=0;" parent="1" edge="1">
          <mxGeometry width="50" height="50" relative="1" as="geometry">
            <mxPoint x="1800" y="511" as="sourcePoint" />
            <mxPoint x="1870" y="511" as="targetPoint" />
          </mxGeometry>
        </mxCell>
        <mxCell id="iQbWCEgDwZBO2M4Au1AI-13" value="Zi" style="text;html=1;align=center;verticalAlign=middle;resizable=0;points=[];autosize=1;strokeColor=none;fillColor=none;" parent="1" vertex="1">
          <mxGeometry x="1775" y="463.25" width="30" height="30" as="geometry" />
        </mxCell>
        <mxCell id="iQbWCEgDwZBO2M4Au1AI-14" value="Zj" style="text;html=1;align=center;verticalAlign=middle;resizable=0;points=[];autosize=1;strokeColor=none;fillColor=none;" parent="1" vertex="1">
          <mxGeometry x="1776" y="479.25" width="30" height="30" as="geometry" />
        </mxCell>
        <mxCell id="iQbWCEgDwZBO2M4Au1AI-15" value="Zl" style="text;html=1;align=center;verticalAlign=middle;resizable=0;points=[];autosize=1;strokeColor=none;fillColor=none;" parent="1" vertex="1">
          <mxGeometry x="1775" y="495.25" width="30" height="30" as="geometry" />
        </mxCell>
        <mxCell id="iQbWCEgDwZBO2M4Au1AI-16" value="" style="endArrow=classic;html=1;rounded=0;exitX=0.001;exitY=0.543;exitDx=0;exitDy=0;exitPerimeter=0;entryX=1.002;entryY=0.536;entryDx=0;entryDy=0;entryPerimeter=0;" parent="1" edge="1">
          <mxGeometry width="50" height="50" relative="1" as="geometry">
            <mxPoint x="1870.23" y="611.3027500000001" as="sourcePoint" />
            <mxPoint x="1800.44" y="610.1700000000001" as="targetPoint" />
          </mxGeometry>
        </mxCell>
        <mxCell id="iQbWCEgDwZBO2M4Au1AI-17" value="" style="endArrow=classic;html=1;rounded=0;exitX=0.001;exitY=0.543;exitDx=0;exitDy=0;exitPerimeter=0;entryX=1.002;entryY=0.536;entryDx=0;entryDy=0;entryPerimeter=0;" parent="1" edge="1">
          <mxGeometry width="50" height="50" relative="1" as="geometry">
            <mxPoint x="1870" y="624.01" as="sourcePoint" />
            <mxPoint x="1800" y="623.01" as="targetPoint" />
          </mxGeometry>
        </mxCell>
        <mxCell id="iQbWCEgDwZBO2M4Au1AI-18" value="" style="endArrow=classic;html=1;rounded=0;exitX=0.001;exitY=0.543;exitDx=0;exitDy=0;exitPerimeter=0;entryX=1.002;entryY=0.536;entryDx=0;entryDy=0;entryPerimeter=0;" parent="1" edge="1">
          <mxGeometry width="50" height="50" relative="1" as="geometry">
            <mxPoint x="1870" y="638.5" as="sourcePoint" />
            <mxPoint x="1800" y="637.5" as="targetPoint" />
          </mxGeometry>
        </mxCell>
        <mxCell id="iQbWCEgDwZBO2M4Au1AI-19" value="" style="endArrow=classic;html=1;rounded=0;exitX=0.001;exitY=0.543;exitDx=0;exitDy=0;exitPerimeter=0;entryX=1.002;entryY=0.536;entryDx=0;entryDy=0;entryPerimeter=0;" parent="1" edge="1">
          <mxGeometry width="50" height="50" relative="1" as="geometry">
            <mxPoint x="1870" y="653.01" as="sourcePoint" />
            <mxPoint x="1800" y="652.01" as="targetPoint" />
          </mxGeometry>
        </mxCell>
        <mxCell id="iQbWCEgDwZBO2M4Au1AI-20" value="" style="endArrow=classic;html=1;rounded=0;exitX=0.001;exitY=0.543;exitDx=0;exitDy=0;exitPerimeter=0;entryX=1.002;entryY=0.536;entryDx=0;entryDy=0;entryPerimeter=0;" parent="1" edge="1">
          <mxGeometry width="50" height="50" relative="1" as="geometry">
            <mxPoint x="1870" y="665.5" as="sourcePoint" />
            <mxPoint x="1800" y="664.5" as="targetPoint" />
          </mxGeometry>
        </mxCell>
        <mxCell id="iQbWCEgDwZBO2M4Au1AI-21" value="" style="endArrow=classic;html=1;rounded=0;exitX=0.001;exitY=0.543;exitDx=0;exitDy=0;exitPerimeter=0;entryX=1.002;entryY=0.536;entryDx=0;entryDy=0;entryPerimeter=0;" parent="1" edge="1">
          <mxGeometry width="50" height="50" relative="1" as="geometry">
            <mxPoint x="1870" y="679.01" as="sourcePoint" />
            <mxPoint x="1800" y="678.01" as="targetPoint" />
          </mxGeometry>
        </mxCell>
        <mxCell id="iQbWCEgDwZBO2M4Au1AI-22" value="" style="endArrow=classic;html=1;rounded=0;exitX=0.001;exitY=0.543;exitDx=0;exitDy=0;exitPerimeter=0;entryX=1.002;entryY=0.536;entryDx=0;entryDy=0;entryPerimeter=0;" parent="1" edge="1">
          <mxGeometry width="50" height="50" relative="1" as="geometry">
            <mxPoint x="1870" y="692.5" as="sourcePoint" />
            <mxPoint x="1800" y="691.5" as="targetPoint" />
          </mxGeometry>
        </mxCell>
        <mxCell id="iQbWCEgDwZBO2M4Au1AI-23" value="Ll" style="text;html=1;align=center;verticalAlign=middle;resizable=0;points=[];autosize=1;strokeColor=none;fillColor=none;" parent="1" vertex="1">
          <mxGeometry x="1865" y="595.75" width="30" height="30" as="geometry" />
        </mxCell>
        <mxCell id="iQbWCEgDwZBO2M4Au1AI-24" value="Ei" style="text;html=1;align=center;verticalAlign=middle;resizable=0;points=[];autosize=1;strokeColor=none;fillColor=none;" parent="1" vertex="1">
          <mxGeometry x="1865" y="609.75" width="30" height="30" as="geometry" />
        </mxCell>
        <mxCell id="iQbWCEgDwZBO2M4Au1AI-25" value="Ej" style="text;html=1;align=center;verticalAlign=middle;resizable=0;points=[];autosize=1;strokeColor=none;fillColor=none;" parent="1" vertex="1">
          <mxGeometry x="1865" y="622.75" width="30" height="30" as="geometry" />
        </mxCell>
        <mxCell id="iQbWCEgDwZBO2M4Au1AI-26" value="Erow" style="text;html=1;align=center;verticalAlign=middle;resizable=0;points=[];autosize=1;strokeColor=none;fillColor=none;" parent="1" vertex="1">
          <mxGeometry x="1863" y="637.75" width="50" height="30" as="geometry" />
        </mxCell>
        <mxCell id="iQbWCEgDwZBO2M4Au1AI-27" value="Ecol" style="text;html=1;align=center;verticalAlign=middle;resizable=0;points=[];autosize=1;strokeColor=none;fillColor=none;" parent="1" vertex="1">
          <mxGeometry x="1861" y="650.75" width="50" height="30" as="geometry" />
        </mxCell>
        <mxCell id="iQbWCEgDwZBO2M4Au1AI-28" value="El" style="text;html=1;align=center;verticalAlign=middle;resizable=0;points=[];autosize=1;strokeColor=none;fillColor=none;" parent="1" vertex="1">
          <mxGeometry x="1865" y="664.75" width="30" height="30" as="geometry" />
        </mxCell>
        <mxCell id="iQbWCEgDwZBO2M4Au1AI-29" value="Ef" style="text;html=1;align=center;verticalAlign=middle;resizable=0;points=[];autosize=1;strokeColor=none;fillColor=none;" parent="1" vertex="1">
          <mxGeometry x="1865" y="692.75" width="30" height="30" as="geometry" />
        </mxCell>
        <mxCell id="iQbWCEgDwZBO2M4Au1AI-30" value="" style="endArrow=classic;html=1;rounded=0;entryX=0.322;entryY=0.002;entryDx=0;entryDy=0;entryPerimeter=0;exitX=0.58;exitY=1;exitDx=0;exitDy=0;exitPerimeter=0;" parent="1" source="iQbWCEgDwZBO2M4Au1AI-31" target="iQbWCEgDwZBO2M4Au1AI-2" edge="1">
          <mxGeometry width="50" height="50" relative="1" as="geometry">
            <mxPoint x="1620" y="380" as="sourcePoint" />
            <mxPoint x="1660" y="450" as="targetPoint" />
          </mxGeometry>
        </mxCell>
        <mxCell id="iQbWCEgDwZBO2M4Au1AI-31" value="sig" style="text;html=1;align=center;verticalAlign=middle;resizable=0;points=[];autosize=1;strokeColor=none;fillColor=none;" parent="1" vertex="1">
          <mxGeometry x="1555" y="360" width="40" height="30" as="geometry" />
        </mxCell>
        <mxCell id="iQbWCEgDwZBO2M4Au1AI-36" value="" style="endArrow=classic;html=1;rounded=0;exitX=0.133;exitY=0.997;exitDx=0;exitDy=0;exitPerimeter=0;" parent="1" edge="1">
          <mxGeometry width="50" height="50" relative="1" as="geometry">
            <mxPoint x="2049.62" y="759" as="sourcePoint" />
            <mxPoint x="2049.62" y="790" as="targetPoint" />
          </mxGeometry>
        </mxCell>
        <mxCell id="iQbWCEgDwZBO2M4Au1AI-37" value="Done" style="text;html=1;align=center;verticalAlign=middle;resizable=0;points=[];autosize=1;strokeColor=none;fillColor=none;" parent="1" vertex="1">
          <mxGeometry x="2025" y="784.01" width="50" height="30" as="geometry" />
        </mxCell>
        <mxCell id="iQbWCEgDwZBO2M4Au1AI-38" value="" style="endArrow=classic;html=1;rounded=0;exitX=0.524;exitY=0.91;exitDx=0;exitDy=0;exitPerimeter=0;" parent="1" source="iQbWCEgDwZBO2M4Au1AI-39" edge="1">
          <mxGeometry width="50" height="50" relative="1" as="geometry">
            <mxPoint x="1919" y="390" as="sourcePoint" />
            <mxPoint x="1919" y="430" as="targetPoint" />
          </mxGeometry>
        </mxCell>
        <mxCell id="iQbWCEgDwZBO2M4Au1AI-39" value="calc" style="text;html=1;align=center;verticalAlign=middle;resizable=0;points=[];autosize=1;strokeColor=none;fillColor=none;" parent="1" vertex="1">
          <mxGeometry x="1896" y="350" width="40" height="30" as="geometry" />
        </mxCell>
        <mxCell id="iQbWCEgDwZBO2M4Au1AI-40" value="" style="endArrow=none;html=1;rounded=0;" parent="1" edge="1">
          <mxGeometry width="50" height="50" relative="1" as="geometry">
            <mxPoint x="1570" y="412" as="sourcePoint" />
            <mxPoint x="1586" y="394" as="targetPoint" />
          </mxGeometry>
        </mxCell>
        <mxCell id="iQbWCEgDwZBO2M4Au1AI-41" value="8" style="edgeLabel;html=1;align=center;verticalAlign=middle;resizable=0;points=[];" parent="iQbWCEgDwZBO2M4Au1AI-40" vertex="1" connectable="0">
          <mxGeometry x="0.4108" relative="1" as="geometry">
            <mxPoint as="offset" />
          </mxGeometry>
        </mxCell>
        <mxCell id="iQbWCEgDwZBO2M4Au1AI-42" value="" style="endArrow=classic;html=1;rounded=0;entryX=0.181;entryY=-0.005;entryDx=0;entryDy=0;entryPerimeter=0;" parent="1" edge="1">
          <mxGeometry width="50" height="50" relative="1" as="geometry">
            <mxPoint x="1619" y="761" as="sourcePoint" />
            <mxPoint x="1618.62" y="782.5" as="targetPoint" />
          </mxGeometry>
        </mxCell>
        <mxCell id="iQbWCEgDwZBO2M4Au1AI-43" value="valid" style="text;html=1;align=center;verticalAlign=middle;resizable=0;points=[];autosize=1;strokeColor=none;fillColor=none;" parent="1" vertex="1">
          <mxGeometry x="1594" y="780" width="50" height="30" as="geometry" />
        </mxCell>
        <mxCell id="iQbWCEgDwZBO2M4Au1AI-46" value="&lt;font style=&quot;font-size: 36px;&quot;&gt;Interface&lt;/font&gt;" style="text;html=1;align=center;verticalAlign=middle;resizable=0;points=[];autosize=1;strokeColor=none;fillColor=none;" parent="1" vertex="1">
          <mxGeometry x="1765" y="270" width="160" height="60" as="geometry" />
        </mxCell>
        <mxCell id="iQbWCEgDwZBO2M4Au1AI-47" value="" style="endArrow=classic;html=1;rounded=0;exitX=0.999;exitY=0.308;exitDx=0;exitDy=0;exitPerimeter=0;entryX=0.002;entryY=0.312;entryDx=0;entryDy=0;entryPerimeter=0;" parent="1" edge="1">
          <mxGeometry width="50" height="50" relative="1" as="geometry">
            <mxPoint x="1801" y="524" as="sourcePoint" />
            <mxPoint x="1871" y="524" as="targetPoint" />
          </mxGeometry>
        </mxCell>
        <mxCell id="iQbWCEgDwZBO2M4Au1AI-49" value="Zrow" style="text;html=1;align=center;verticalAlign=middle;resizable=0;points=[];autosize=1;strokeColor=none;fillColor=none;" parent="1" vertex="1">
          <mxGeometry x="1758" y="509.25" width="50" height="30" as="geometry" />
        </mxCell>
        <mxCell id="iQbWCEgDwZBO2M4Au1AI-54" value="" style="endArrow=classic;html=1;rounded=0;exitX=0.001;exitY=0.543;exitDx=0;exitDy=0;exitPerimeter=0;entryX=1.002;entryY=0.536;entryDx=0;entryDy=0;entryPerimeter=0;" parent="1" edge="1">
          <mxGeometry width="50" height="50" relative="1" as="geometry">
            <mxPoint x="1869" y="559.01" as="sourcePoint" />
            <mxPoint x="1799" y="558.01" as="targetPoint" />
          </mxGeometry>
        </mxCell>
        <mxCell id="iQbWCEgDwZBO2M4Au1AI-55" value="" style="endArrow=classic;html=1;rounded=0;exitX=0.001;exitY=0.543;exitDx=0;exitDy=0;exitPerimeter=0;entryX=1.002;entryY=0.536;entryDx=0;entryDy=0;entryPerimeter=0;" parent="1" edge="1">
          <mxGeometry width="50" height="50" relative="1" as="geometry">
            <mxPoint x="1870" y="572.5" as="sourcePoint" />
            <mxPoint x="1800" y="571.5" as="targetPoint" />
          </mxGeometry>
        </mxCell>
        <mxCell id="iQbWCEgDwZBO2M4Au1AI-56" value="" style="endArrow=classic;html=1;rounded=0;exitX=0.001;exitY=0.543;exitDx=0;exitDy=0;exitPerimeter=0;entryX=1.002;entryY=0.536;entryDx=0;entryDy=0;entryPerimeter=0;" parent="1" edge="1">
          <mxGeometry width="50" height="50" relative="1" as="geometry">
            <mxPoint x="1869" y="586.01" as="sourcePoint" />
            <mxPoint x="1799" y="585.01" as="targetPoint" />
          </mxGeometry>
        </mxCell>
        <mxCell id="iQbWCEgDwZBO2M4Au1AI-57" value="" style="endArrow=classic;html=1;rounded=0;exitX=0.001;exitY=0.543;exitDx=0;exitDy=0;exitPerimeter=0;entryX=1.002;entryY=0.536;entryDx=0;entryDy=0;entryPerimeter=0;" parent="1" edge="1">
          <mxGeometry width="50" height="50" relative="1" as="geometry">
            <mxPoint x="1870" y="598.5" as="sourcePoint" />
            <mxPoint x="1800" y="597.5" as="targetPoint" />
          </mxGeometry>
        </mxCell>
        <mxCell id="iQbWCEgDwZBO2M4Au1AI-61" value="Li" style="text;html=1;align=center;verticalAlign=middle;resizable=0;points=[];autosize=1;strokeColor=none;fillColor=none;" parent="1" vertex="1">
          <mxGeometry x="1863" y="543.75" width="30" height="30" as="geometry" />
        </mxCell>
        <mxCell id="iQbWCEgDwZBO2M4Au1AI-62" value="Lj" style="text;html=1;align=center;verticalAlign=middle;resizable=0;points=[];autosize=1;strokeColor=none;fillColor=none;" parent="1" vertex="1">
          <mxGeometry x="1864" y="556.75" width="30" height="30" as="geometry" />
        </mxCell>
        <mxCell id="iQbWCEgDwZBO2M4Au1AI-63" value="Lrow" style="text;html=1;align=center;verticalAlign=middle;resizable=0;points=[];autosize=1;strokeColor=none;fillColor=none;" parent="1" vertex="1">
          <mxGeometry x="1862" y="570.75" width="50" height="30" as="geometry" />
        </mxCell>
        <mxCell id="iQbWCEgDwZBO2M4Au1AI-64" value="Lcol" style="text;html=1;align=center;verticalAlign=middle;resizable=0;points=[];autosize=1;strokeColor=none;fillColor=none;" parent="1" vertex="1">
          <mxGeometry x="1860" y="582.75" width="50" height="30" as="geometry" />
        </mxCell>
        <mxCell id="iQbWCEgDwZBO2M4Au1AI-65" value="" style="endArrow=classic;html=1;rounded=0;entryX=0.181;entryY=-0.005;entryDx=0;entryDy=0;entryPerimeter=0;exitX=0.58;exitY=1;exitDx=0;exitDy=0;exitPerimeter=0;" parent="1" source="iQbWCEgDwZBO2M4Au1AI-66" edge="1">
          <mxGeometry width="50" height="50" relative="1" as="geometry">
            <mxPoint x="1645" y="380" as="sourcePoint" />
            <mxPoint x="1604" y="429" as="targetPoint" />
          </mxGeometry>
        </mxCell>
        <mxCell id="iQbWCEgDwZBO2M4Au1AI-66" value="t" style="text;html=1;align=center;verticalAlign=middle;resizable=0;points=[];autosize=1;strokeColor=none;fillColor=none;" parent="1" vertex="1">
          <mxGeometry x="1585" y="360" width="30" height="30" as="geometry" />
        </mxCell>
        <mxCell id="iQbWCEgDwZBO2M4Au1AI-67" value="" style="endArrow=none;html=1;rounded=0;" parent="1" edge="1">
          <mxGeometry width="50" height="50" relative="1" as="geometry">
            <mxPoint x="1595" y="412" as="sourcePoint" />
            <mxPoint x="1611" y="394" as="targetPoint" />
          </mxGeometry>
        </mxCell>
        <mxCell id="iQbWCEgDwZBO2M4Au1AI-68" value="8" style="edgeLabel;html=1;align=center;verticalAlign=middle;resizable=0;points=[];" parent="iQbWCEgDwZBO2M4Au1AI-67" vertex="1" connectable="0">
          <mxGeometry x="0.4108" relative="1" as="geometry">
            <mxPoint as="offset" />
          </mxGeometry>
        </mxCell>
        <mxCell id="iQbWCEgDwZBO2M4Au1AI-69" value="" style="endArrow=classic;html=1;rounded=0;entryX=0.181;entryY=-0.005;entryDx=0;entryDy=0;entryPerimeter=0;exitX=0.528;exitY=0.951;exitDx=0;exitDy=0;exitPerimeter=0;" parent="1" source="iQbWCEgDwZBO2M4Au1AI-70" edge="1">
          <mxGeometry width="50" height="50" relative="1" as="geometry">
            <mxPoint x="1664" y="380" as="sourcePoint" />
            <mxPoint x="1623" y="429" as="targetPoint" />
          </mxGeometry>
        </mxCell>
        <mxCell id="iQbWCEgDwZBO2M4Au1AI-70" value="expanded_pk" style="text;html=1;align=center;verticalAlign=middle;resizable=0;points=[];autosize=1;strokeColor=none;fillColor=none;" parent="1" vertex="1">
          <mxGeometry x="1569" y="330" width="100" height="30" as="geometry" />
        </mxCell>
        <mxCell id="iQbWCEgDwZBO2M4Au1AI-71" value="" style="endArrow=none;html=1;rounded=0;" parent="1" edge="1">
          <mxGeometry width="50" height="50" relative="1" as="geometry">
            <mxPoint x="1614" y="412" as="sourcePoint" />
            <mxPoint x="1630" y="394" as="targetPoint" />
          </mxGeometry>
        </mxCell>
        <mxCell id="iQbWCEgDwZBO2M4Au1AI-72" value="8" style="edgeLabel;html=1;align=center;verticalAlign=middle;resizable=0;points=[];" parent="iQbWCEgDwZBO2M4Au1AI-71" vertex="1" connectable="0">
          <mxGeometry x="0.4108" relative="1" as="geometry">
            <mxPoint as="offset" />
          </mxGeometry>
        </mxCell>
        <mxCell id="iQbWCEgDwZBO2M4Au1AI-85" value="" style="endArrow=classic;html=1;rounded=0;entryX=0.181;entryY=-0.005;entryDx=0;entryDy=0;entryPerimeter=0;" parent="1" edge="1">
          <mxGeometry width="50" height="50" relative="1" as="geometry">
            <mxPoint x="1760" y="340" as="sourcePoint" />
            <mxPoint x="1759" y="429" as="targetPoint" />
          </mxGeometry>
        </mxCell>
        <mxCell id="iQbWCEgDwZBO2M4Au1AI-86" value="WrInit" style="text;html=1;align=center;verticalAlign=middle;resizable=0;points=[];autosize=1;strokeColor=none;fillColor=none;" parent="1" vertex="1">
          <mxGeometry x="1730" y="310" width="50" height="30" as="geometry" />
        </mxCell>
        <mxCell id="iQbWCEgDwZBO2M4Au1AI-93" value="" style="endArrow=classic;html=1;rounded=0;edgeStyle=orthogonalEdgeStyle;entryX=0.929;entryY=0;entryDx=0;entryDy=0;entryPerimeter=0;" parent="1" edge="1">
          <mxGeometry width="50" height="50" relative="1" as="geometry">
            <mxPoint x="1918" y="390" as="sourcePoint" />
            <mxPoint x="1778.83" y="430.75" as="targetPoint" />
            <Array as="points" />
          </mxGeometry>
        </mxCell>
        <mxCell id="-rdHO6G-8FZMf1suFJDI-2" value="" style="endArrow=classic;html=1;rounded=0;entryX=0.287;entryY=-0.003;entryDx=0;entryDy=0;entryPerimeter=0;edgeStyle=orthogonalEdgeStyle;" edge="1" parent="1" target="iQbWCEgDwZBO2M4Au1AI-3">
          <mxGeometry width="50" height="50" relative="1" as="geometry">
            <mxPoint x="1760" y="340" as="sourcePoint" />
            <mxPoint x="1760" y="420" as="targetPoint" />
            <Array as="points">
              <mxPoint x="1760" y="350" />
              <mxPoint x="1976" y="350" />
            </Array>
          </mxGeometry>
        </mxCell>
        <mxCell id="-rdHO6G-8FZMf1suFJDI-4" value="" style="endArrow=classic;html=1;rounded=0;exitX=0.999;exitY=0.308;exitDx=0;exitDy=0;exitPerimeter=0;entryX=0.002;entryY=0.312;entryDx=0;entryDy=0;entryPerimeter=0;" edge="1" parent="1">
          <mxGeometry width="50" height="50" relative="1" as="geometry">
            <mxPoint x="1799.9999999999998" y="539.2500000000001" as="sourcePoint" />
            <mxPoint x="1870.68" y="539.896" as="targetPoint" />
          </mxGeometry>
        </mxCell>
        <mxCell id="-rdHO6G-8FZMf1suFJDI-5" value="Zcol" style="text;html=1;align=center;verticalAlign=middle;resizable=0;points=[];autosize=1;strokeColor=none;fillColor=none;" vertex="1" parent="1">
          <mxGeometry x="1758" y="523.25" width="50" height="30" as="geometry" />
        </mxCell>
        <mxCell id="-rdHO6G-8FZMf1suFJDI-6" value="" style="endArrow=classic;html=1;rounded=0;exitX=0.133;exitY=0.997;exitDx=0;exitDy=0;exitPerimeter=0;" edge="1" parent="1">
          <mxGeometry width="50" height="50" relative="1" as="geometry">
            <mxPoint x="2099.62" y="759" as="sourcePoint" />
            <mxPoint x="2099.62" y="790" as="targetPoint" />
          </mxGeometry>
        </mxCell>
        <mxCell id="-rdHO6G-8FZMf1suFJDI-7" value="write_done" style="text;html=1;align=center;verticalAlign=middle;resizable=0;points=[];autosize=1;strokeColor=none;fillColor=none;" vertex="1" parent="1">
          <mxGeometry x="2060" y="784.01" width="80" height="30" as="geometry" />
        </mxCell>
        <mxCell id="-rdHO6G-8FZMf1suFJDI-8" value="" style="endArrow=classic;html=1;rounded=0;exitX=0.001;exitY=0.543;exitDx=0;exitDy=0;exitPerimeter=0;entryX=1.002;entryY=0.536;entryDx=0;entryDy=0;entryPerimeter=0;" edge="1" parent="1">
          <mxGeometry width="50" height="50" relative="1" as="geometry">
            <mxPoint x="1870" y="707.01" as="sourcePoint" />
            <mxPoint x="1800" y="706.01" as="targetPoint" />
          </mxGeometry>
        </mxCell>
        <mxCell id="-rdHO6G-8FZMf1suFJDI-9" value="" style="endArrow=classic;html=1;rounded=0;exitX=0.001;exitY=0.543;exitDx=0;exitDy=0;exitPerimeter=0;entryX=1.002;entryY=0.536;entryDx=0;entryDy=0;entryPerimeter=0;" edge="1" parent="1">
          <mxGeometry width="50" height="50" relative="1" as="geometry">
            <mxPoint x="1870" y="722.5" as="sourcePoint" />
            <mxPoint x="1800" y="721.5" as="targetPoint" />
          </mxGeometry>
        </mxCell>
        <mxCell id="-rdHO6G-8FZMf1suFJDI-10" value="" style="endArrow=classic;html=1;rounded=0;exitX=0.001;exitY=0.543;exitDx=0;exitDy=0;exitPerimeter=0;entryX=1.002;entryY=0.536;entryDx=0;entryDy=0;entryPerimeter=0;" edge="1" parent="1">
          <mxGeometry width="50" height="50" relative="1" as="geometry">
            <mxPoint x="1870" y="736.01" as="sourcePoint" />
            <mxPoint x="1800" y="735.01" as="targetPoint" />
          </mxGeometry>
        </mxCell>
        <mxCell id="-rdHO6G-8FZMf1suFJDI-11" value="" style="endArrow=classic;html=1;rounded=0;exitX=0.001;exitY=0.543;exitDx=0;exitDy=0;exitPerimeter=0;entryX=1.002;entryY=0.536;entryDx=0;entryDy=0;entryPerimeter=0;" edge="1" parent="1">
          <mxGeometry width="50" height="50" relative="1" as="geometry">
            <mxPoint x="1870" y="749.5" as="sourcePoint" />
            <mxPoint x="1800" y="748.5" as="targetPoint" />
          </mxGeometry>
        </mxCell>
        <mxCell id="-rdHO6G-8FZMf1suFJDI-12" value="Wr" style="text;html=1;align=center;verticalAlign=middle;resizable=0;points=[];autosize=1;strokeColor=none;fillColor=none;" vertex="1" parent="1">
          <mxGeometry x="1861" y="706.75" width="40" height="30" as="geometry" />
        </mxCell>
        <mxCell id="-rdHO6G-8FZMf1suFJDI-13" value="Arr" style="text;html=1;align=center;verticalAlign=middle;resizable=0;points=[];autosize=1;strokeColor=none;fillColor=none;" vertex="1" parent="1">
          <mxGeometry x="1862" y="720.75" width="40" height="30" as="geometry" />
        </mxCell>
        <mxCell id="-rdHO6G-8FZMf1suFJDI-14" value="Rd" style="text;html=1;align=center;verticalAlign=middle;resizable=0;points=[];autosize=1;strokeColor=none;fillColor=none;" vertex="1" parent="1">
          <mxGeometry x="1861" y="733.75" width="40" height="30" as="geometry" />
        </mxCell>
        <mxCell id="-rdHO6G-8FZMf1suFJDI-15" value="Ey" style="text;html=1;align=center;verticalAlign=middle;resizable=0;points=[];autosize=1;strokeColor=none;fillColor=none;" vertex="1" parent="1">
          <mxGeometry x="1861" y="676.75" width="40" height="30" as="geometry" />
        </mxCell>
      </root>
    </mxGraphModel>
  </diagram>
</mxfile>
